<?xml version="1.0" encoding="UTF-8" standalone="no"?>
<!DOCTYPE svg PUBLIC "-//W3C//DTD SVG 1.1//EN"
 "http://www.w3.org/Graphics/SVG/1.1/DTD/svg11.dtd">
<!-- Generated by graphviz version 12.2.1 (20241206.2353)
 -->
<!-- Title: G Pages: 1 -->
<svg width="1166pt" height="809pt"
 viewBox="0.00 0.00 1165.59 809.22" xmlns="http://www.w3.org/2000/svg" xmlns:xlink="http://www.w3.org/1999/xlink">
<g id="graph0" class="graph" transform="scale(1 1) rotate(0) translate(4 805.22)">
<title>G</title><style>.edge>path:hover{stroke-width:8}</style>
<polygon fill="white" stroke="none" points="-4,4 -4,-805.22 1161.59,-805.22 1161.59,4 -4,4"/>
<!-- database -->
<g id="node1" class="node">
<title>database</title><style>.edge>path:hover{stroke-width:8}</style>
<ellipse fill="#ac4949" stroke="black" cx="995.71" cy="-127" rx="33.52" ry="18"/>
<text text-anchor="middle" x="995.71" y="-123.5" font-family="Helvetica,sans-Serif" font-size="10.00" fill="#ffffff">database</text>
</g>
<!-- main_py -->
<g id="node14" class="node">
<title>main_py</title><style>.edge>path:hover{stroke-width:8}</style>
<ellipse fill="#4b8b4b" stroke="black" cx="929.71" cy="-18" rx="30.37" ry="18"/>
<text text-anchor="middle" x="929.71" y="-14.5" font-family="Helvetica,sans-Serif" font-size="10.00" fill="#ffffff">main.py</text>
</g>
<!-- database&#45;&gt;main_py -->
<g id="edge1" class="edge">
<title>database&#45;&gt;main_py</title><style>.edge>path:hover{stroke-width:8}</style>
<path fill="none" stroke="black" d="M967.87,-116.73C944,-107.27 915.54,-91.39 929.71,-73"/>
</g>
<!-- database_database -->
<g id="node2" class="node">
<title>database_database</title><style>.edge>path:hover{stroke-width:8}</style>
<ellipse fill="#ac4949" stroke="black" cx="999.71" cy="-203.63" rx="41.54" ry="22.63"/>
<text text-anchor="middle" x="999.71" y="-206.13" font-family="Helvetica,sans-Serif" font-size="10.00" fill="#ffffff">database.</text>
<text text-anchor="middle" x="999.71" y="-194.13" font-family="Helvetica,sans-Serif" font-size="10.00" fill="#ffffff">database</text>
</g>
<!-- database_database&#45;&gt;database -->
<g id="edge2" class="edge">
<title>database_database&#45;&gt;database</title><style>.edge>path:hover{stroke-width:8}</style>
<path fill="none" stroke="black" d="M998.53,-180.64C998.13,-173.1 997.67,-164.56 997.24,-156.57"/>
<polygon fill="#ac4949" stroke="black" points="1000.74,-156.41 996.71,-146.61 993.75,-156.78 1000.74,-156.41"/>
</g>
<!-- database_models -->
<g id="node3" class="node">
<title>database_models</title><style>.edge>path:hover{stroke-width:8}</style>
<ellipse fill="#c04040" stroke="black" cx="1069.71" cy="-293.37" rx="41.54" ry="22.63"/>
<text text-anchor="middle" x="1069.71" y="-295.87" font-family="Helvetica,sans-Serif" font-size="10.00" fill="#ffffff">database.</text>
<text text-anchor="middle" x="1069.71" y="-283.87" font-family="Helvetica,sans-Serif" font-size="10.00" fill="#ffffff">models</text>
</g>
<!-- database_models&#45;&gt;database -->
<g id="edge3" class="edge">
<title>database_models&#45;&gt;database</title><style>.edge>path:hover{stroke-width:8}</style>
<path fill="none" stroke="black" d="M1069.94,-270.57C1069.32,-247.14 1065.75,-209.44 1050.71,-181 1044.35,-168.97 1034.26,-158.07 1024.44,-149.33"/>
<polygon fill="#c04040" stroke="black" points="1026.69,-146.65 1016.78,-142.91 1022.19,-152.01 1026.69,-146.65"/>
</g>
<!-- database_models&#45;&gt;database_database -->
<g id="edge4" class="edge">
<title>database_models&#45;&gt;database_database</title><style>.edge>path:hover{stroke-width:8}</style>
<path fill="none" stroke="black" d="M1053.83,-272.46C1044.67,-260.98 1033,-246.36 1022.85,-233.63"/>
<polygon fill="#c04040" stroke="black" points="1025.69,-231.58 1016.72,-225.95 1020.22,-235.94 1025.69,-231.58"/>
</g>
<!-- flask -->
<g id="node4" class="node">
<title>flask</title><style>.edge>path:hover{stroke-width:8}</style>
<polygon fill="blue" stroke="black" points="275.71,-145 221.71,-145 221.71,-109 275.71,-109 275.71,-145"/>
<text text-anchor="middle" x="248.71" y="-123.5" font-family="Helvetica,sans-Serif" font-size="10.00" fill="white">flask</text>
</g>
<!-- flask&#45;&gt;main_py -->
<g id="edge5" class="edge">
<title>flask&#45;&gt;main_py</title><style>.edge>path:hover{stroke-width:8}</style>
<path fill="none" stroke="black" d="M276.18,-124.99C400.99,-120.25 909.39,-99.36 929.71,-73"/>
<path fill="none" stroke="black" d="M929.71,-72C935.04,-65.09 936.42,-56.02 936.04,-47.34"/>
<polygon fill="blue" stroke="black" points="939.53,-46.99 934.84,-37.49 932.58,-47.84 939.53,-46.99"/>
</g>
<!-- flask_app -->
<g id="node5" class="node">
<title>flask_app</title><style>.edge>path:hover{stroke-width:8}</style>
<polygon fill="blue" stroke="black" points="241.59,-562.85 185.84,-562.85 185.84,-526.85 241.59,-526.85 241.59,-562.85"/>
<text text-anchor="middle" x="213.71" y="-541.35" font-family="Helvetica,sans-Serif" font-size="10.00" fill="white">flask.app</text>
</g>
<!-- flask_app&#45;&gt;flask -->
<g id="edge6" class="edge">
<title>flask_app&#45;&gt;flask</title><style>.edge>path:hover{stroke-width:8}</style>
<path fill="none" stroke="black" d="M228.63,-526.54C264.12,-485.28 350.65,-384.2 350.71,-379.48"/>
<path fill="none" stroke="black" d="M350.71,-377.48C351.97,-300.67 371.03,-278.71 350.71,-204.63"/>
</g>
<!-- flask_blueprints -->
<g id="node6" class="node">
<title>flask_blueprints</title><style>.edge>path:hover{stroke-width:8}</style>
<polygon fill="blue" stroke="black" points="377.71,-473.11 319.71,-473.11 319.71,-437.11 377.71,-437.11 377.71,-473.11"/>
<text text-anchor="middle" x="348.71" y="-457.61" font-family="Helvetica,sans-Serif" font-size="10.00" fill="white">flask.</text>
<text text-anchor="middle" x="348.71" y="-445.61" font-family="Helvetica,sans-Serif" font-size="10.00" fill="white">blueprints</text>
</g>
<!-- flask_app&#45;&gt;flask_blueprints -->
<g id="edge7" class="edge">
<title>flask_app&#45;&gt;flask_blueprints</title><style>.edge>path:hover{stroke-width:8}</style>
<path fill="none" stroke="black" d="M250.02,-520.25C269.46,-507.62 293.31,-492.12 312.69,-479.52"/>
<polygon fill="blue" stroke="black" points="248.13,-517.3 241.65,-525.69 251.94,-523.17 248.13,-517.3"/>
<polygon fill="blue" stroke="black" points="314.35,-482.62 320.83,-474.23 310.53,-476.75 314.35,-482.62"/>
</g>
<!-- flask_ctx -->
<g id="node8" class="node">
<title>flask_ctx</title><style>.edge>path:hover{stroke-width:8}</style>
<polygon fill="blue" stroke="black" points="88.71,-473.11 34.71,-473.11 34.71,-437.11 88.71,-437.11 88.71,-473.11"/>
<text text-anchor="middle" x="61.71" y="-451.61" font-family="Helvetica,sans-Serif" font-size="10.00" fill="white">flask.ctx</text>
</g>
<!-- flask_app&#45;&gt;flask_ctx -->
<g id="edge8" class="edge">
<title>flask_app&#45;&gt;flask_ctx</title><style>.edge>path:hover{stroke-width:8}</style>
<path fill="none" stroke="black" d="M175.61,-521.85C152.14,-508.31 122.19,-491.02 98.89,-477.57"/>
<polygon fill="blue" stroke="black" points="173.76,-524.83 184.17,-526.79 177.26,-518.76 173.76,-524.83"/>
<polygon fill="blue" stroke="black" points="100.75,-474.6 90.34,-472.63 97.25,-480.66 100.75,-474.6"/>
</g>
<!-- flask_globals -->
<g id="node9" class="node">
<title>flask_globals</title><style>.edge>path:hover{stroke-width:8}</style>
<polygon fill="blue" stroke="black" points="249.09,-396.48 178.34,-396.48 178.34,-360.48 249.09,-360.48 249.09,-396.48"/>
<text text-anchor="middle" x="213.71" y="-374.98" font-family="Helvetica,sans-Serif" font-size="10.00" fill="white">flask.globals</text>
</g>
<!-- flask_app&#45;&gt;flask_globals -->
<g id="edge9" class="edge">
<title>flask_app&#45;&gt;flask_globals</title><style>.edge>path:hover{stroke-width:8}</style>
<path fill="none" stroke="black" d="M213.71,-515.49C213.71,-485.47 213.71,-438.34 213.71,-408.18"/>
<polygon fill="blue" stroke="black" points="210.21,-515.05 213.71,-525.05 217.21,-515.05 210.21,-515.05"/>
<polygon fill="blue" stroke="black" points="217.21,-408.29 213.71,-398.29 210.21,-408.29 217.21,-408.29"/>
</g>
<!-- flask_json -->
<g id="node11" class="node">
<title>flask_json</title><style>.edge>path:hover{stroke-width:8}</style>
<polygon fill="blue" stroke="black" points="305.71,-311.37 247.71,-311.37 247.71,-275.37 305.71,-275.37 305.71,-311.37"/>
<text text-anchor="middle" x="276.71" y="-289.87" font-family="Helvetica,sans-Serif" font-size="10.00" fill="white">flask.json</text>
</g>
<!-- flask_app&#45;&gt;flask_json -->
<g id="edge10" class="edge">
<title>flask_app&#45;&gt;flask_json</title><style>.edge>path:hover{stroke-width:8}</style>
<path fill="none" stroke="black" d="M222.97,-516.08C232.55,-486.63 247.53,-438.64 257.71,-396.48 263.66,-371.86 268.8,-343.53 272.23,-322.96"/>
<polygon fill="blue" stroke="black" points="219.72,-514.74 219.93,-525.33 226.37,-516.92 219.72,-514.74"/>
<polygon fill="blue" stroke="black" points="275.64,-323.76 273.8,-313.33 268.73,-322.63 275.64,-323.76"/>
</g>
<!-- flask_templating -->
<g id="node13" class="node">
<title>flask_templating</title><style>.edge>path:hover{stroke-width:8}</style>
<polygon fill="blue" stroke="black" points="181.21,-221.63 120.21,-221.63 120.21,-185.63 181.21,-185.63 181.21,-221.63"/>
<text text-anchor="middle" x="150.71" y="-206.13" font-family="Helvetica,sans-Serif" font-size="10.00" fill="white">flask.</text>
<text text-anchor="middle" x="150.71" y="-194.13" font-family="Helvetica,sans-Serif" font-size="10.00" fill="white">templating</text>
</g>
<!-- flask_app&#45;&gt;flask_templating -->
<g id="edge11" class="edge">
<title>flask_app&#45;&gt;flask_templating</title><style>.edge>path:hover{stroke-width:8}</style>
<path fill="none" stroke="black" d="M195.03,-516.96C168.67,-477.13 121.94,-399.08 105.71,-324.48 99.83,-297.46 96.71,-288.4 105.71,-262.25 109.68,-250.73 117,-239.75 124.6,-230.52"/>
<polygon fill="blue" stroke="black" points="192.1,-518.87 200.58,-525.21 197.91,-514.96 192.1,-518.87"/>
<polygon fill="blue" stroke="black" points="127.19,-232.87 131.18,-223.05 121.94,-228.24 127.19,-232.87"/>
</g>
<!-- flask_blueprints&#45;&gt;flask -->
<g id="edge12" class="edge">
<title>flask_blueprints&#45;&gt;flask</title><style>.edge>path:hover{stroke-width:8}</style>
<path fill="none" stroke="black" d="M349.32,-436.62C349.81,-421.5 350.46,-399.05 350.71,-379.48"/>
</g>
<!-- flask_config -->
<g id="node7" class="node">
<title>flask_config</title><style>.edge>path:hover{stroke-width:8}</style>
<ellipse fill="#c2c247" stroke="black" cx="359.71" cy="-629.96" rx="39.84" ry="18"/>
<text text-anchor="middle" x="359.71" y="-626.46" font-family="Helvetica,sans-Serif" font-size="10.00" fill="#000000">flask.config</text>
</g>
<!-- flask_config&#45;&gt;flask -->
<g id="edge14" class="edge">
<title>flask_config&#45;&gt;flask</title><style>.edge>path:hover{stroke-width:8}</style>
<path fill="none" stroke="black" d="M366.84,-612.01C380.32,-577.48 406.5,-496.82 386.71,-432.48 378.34,-405.26 349.13,-407.91 350.71,-379.48"/>
</g>
<!-- flask_config&#45;&gt;flask_app -->
<g id="edge15" class="edge">
<title>flask_config&#45;&gt;flask_app</title><style>.edge>path:hover{stroke-width:8}</style>
<path fill="none" stroke="black" d="M335.6,-615.24C312.76,-602.24 278.11,-582.51 251.58,-567.41"/>
<polygon fill="#c2c247" stroke="black" points="253.59,-564.52 243.17,-562.62 250.13,-570.61 253.59,-564.52"/>
</g>
<!-- flask_ctx&#45;&gt;flask -->
<g id="edge16" class="edge">
<title>flask_ctx&#45;&gt;flask</title><style>.edge>path:hover{stroke-width:8}</style>
<path fill="none" stroke="black" d="M43.16,-436.88C30,-422.94 14.08,-401.98 10.71,-379.48"/>
</g>
<!-- flask_ctx&#45;&gt;flask_globals -->
<g id="edge18" class="edge">
<title>flask_ctx&#45;&gt;flask_globals</title><style>.edge>path:hover{stroke-width:8}</style>
<path fill="none" stroke="black" d="M99.09,-435.76C119.92,-425.53 146.03,-412.71 168.06,-401.89"/>
<polygon fill="blue" stroke="black" points="97.68,-432.55 90.24,-440.1 100.76,-438.83 97.68,-432.55"/>
<polygon fill="blue" stroke="black" points="169.4,-405.14 176.83,-397.59 166.31,-398.85 169.4,-405.14"/>
</g>
<!-- flask_globals&#45;&gt;flask -->
<g id="edge19" class="edge">
<title>flask_globals&#45;&gt;flask</title><style>.edge>path:hover{stroke-width:8}</style>
<path fill="none" stroke="black" d="M214.71,-292.37C208.29,-253.9 200.24,-240.84 214.71,-204.63"/>
</g>
<!-- flask_helpers -->
<g id="node10" class="node">
<title>flask_helpers</title><style>.edge>path:hover{stroke-width:8}</style>
<polygon fill="blue" stroke="black" points="186.46,-311.37 114.96,-311.37 114.96,-275.37 186.46,-275.37 186.46,-311.37"/>
<text text-anchor="middle" x="150.71" y="-289.87" font-family="Helvetica,sans-Serif" font-size="10.00" fill="white">flask.helpers</text>
</g>
<!-- flask_globals&#45;&gt;flask_helpers -->
<g id="edge22" class="edge">
<title>flask_globals&#45;&gt;flask_helpers</title><style>.edge>path:hover{stroke-width:8}</style>
<path fill="none" stroke="black" d="M200.66,-360.26C192.01,-348.86 180.51,-333.68 170.72,-320.77"/>
<polygon fill="blue" stroke="black" points="173.71,-318.91 164.88,-313.06 168.13,-323.14 173.71,-318.91"/>
</g>
<!-- flask_globals&#45;&gt;flask_json -->
<g id="edge23" class="edge">
<title>flask_globals&#45;&gt;flask_json</title><style>.edge>path:hover{stroke-width:8}</style>
<path fill="none" stroke="black" d="M226.76,-360.26C235.41,-348.86 246.91,-333.68 256.7,-320.77"/>
<polygon fill="blue" stroke="black" points="259.29,-323.14 262.54,-313.06 253.71,-318.91 259.29,-323.14"/>
</g>
<!-- flask_globals&#45;&gt;flask_templating -->
<g id="edge24" class="edge">
<title>flask_globals&#45;&gt;flask_templating</title><style>.edge>path:hover{stroke-width:8}</style>
<path fill="none" stroke="black" d="M215.69,-360.15C217.2,-343.24 218.46,-316.86 214.71,-294.37"/>
<path fill="none" stroke="black" d="M214.71,-292.37C210.67,-268.14 194.16,-245.84 178.93,-229.79"/>
<polygon fill="blue" stroke="black" points="181.76,-227.67 172.22,-223.06 176.8,-232.62 181.76,-227.67"/>
</g>
<!-- flask_helpers&#45;&gt;flask -->
<g id="edge25" class="edge">
<title>flask_helpers&#45;&gt;flask</title><style>.edge>path:hover{stroke-width:8}</style>
<path fill="none" stroke="black" d="M214.71,-202.63C221,-186.87 228.8,-169.62 235.35,-155.67"/>
<polygon fill="blue" stroke="black" points="238.5,-157.19 239.62,-146.66 232.17,-154.19 238.5,-157.19"/>
<path fill="none" stroke="black" d="M167.38,-275.17C182.42,-258.55 203.8,-231.94 214.71,-204.63"/>
</g>
<!-- flask_helpers&#45;&gt;flask_app -->
<g id="edge26" class="edge">
<title>flask_helpers&#45;&gt;flask_app</title><style>.edge>path:hover{stroke-width:8}</style>
<path fill="none" stroke="black" d="M153.38,-311.83C156.64,-332.26 162.6,-367.03 169.71,-396.48 179.9,-438.64 194.87,-486.63 204.46,-516.08"/>
<polygon fill="blue" stroke="black" points="201.05,-516.92 207.49,-525.33 207.7,-514.74 201.05,-516.92"/>
</g>
<!-- flask_helpers&#45;&gt;flask_templating -->
<g id="edge27" class="edge">
<title>flask_helpers&#45;&gt;flask_templating</title><style>.edge>path:hover{stroke-width:8}</style>
<path fill="none" stroke="black" d="M150.71,-275.03C150.71,-263.14 150.71,-247.07 150.71,-233.29"/>
<polygon fill="blue" stroke="black" points="154.21,-233.44 150.71,-223.44 147.21,-233.44 154.21,-233.44"/>
</g>
<!-- flask_json&#45;&gt;flask -->
<g id="edge28" class="edge">
<title>flask_json&#45;&gt;flask</title><style>.edge>path:hover{stroke-width:8}</style>
<path fill="none" stroke="black" d="M350.71,-202.63C342.48,-172.63 312.09,-152.97 286.61,-141.4"/>
<polygon fill="blue" stroke="black" points="288.03,-138.2 277.46,-137.52 285.3,-144.65 288.03,-138.2"/>
<path fill="none" stroke="black" d="M305.99,-276.08C330.03,-260.3 358.88,-234.41 350.71,-204.63"/>
</g>
<!-- flask_signals -->
<g id="node12" class="node">
<title>flask_signals</title><style>.edge>path:hover{stroke-width:8}</style>
<ellipse fill="#e7e722" stroke="black" cx="110.71" cy="-629.96" rx="42.54" ry="18"/>
<text text-anchor="middle" x="110.71" y="-626.46" font-family="Helvetica,sans-Serif" font-size="10.00" fill="#000000">flask.signals</text>
</g>
<!-- flask_signals&#45;&gt;flask -->
<g id="edge30" class="edge">
<title>flask_signals&#45;&gt;flask</title><style>.edge>path:hover{stroke-width:8}</style>
<path fill="none" stroke="black" d="M10.71,-377.48C-3.81,-280.58 36.78,-245.3 110.71,-181 139.21,-156.21 180.56,-142.4 210.56,-135.15"/>
<polygon fill="#e7e722" stroke="black" points="211,-138.64 219.98,-133.01 209.45,-131.81 211,-138.64"/>
<path fill="none" stroke="black" d="M6.71,-454.11C11.54,-421.24 14.05,-412.53 10.71,-379.48"/>
<path fill="none" stroke="black" d="M6.71,-543.85C-4.58,-506.52 1.05,-494.69 6.71,-456.11"/>
<path fill="none" stroke="black" d="M80.8,-616.87C53.95,-603.97 17.22,-580.58 6.71,-545.85"/>
</g>
<!-- flask_signals&#45;&gt;flask_app -->
<g id="edge31" class="edge">
<title>flask_signals&#45;&gt;flask_app</title><style>.edge>path:hover{stroke-width:8}</style>
<path fill="none" stroke="black" d="M129.6,-613.72C144.64,-601.58 165.97,-584.37 183.39,-570.31"/>
<polygon fill="#e7e722" stroke="black" points="185.33,-573.25 190.91,-564.25 180.93,-567.8 185.33,-573.25"/>
</g>
<!-- flask_signals&#45;&gt;flask_ctx -->
<g id="edge32" class="edge">
<title>flask_signals&#45;&gt;flask_ctx</title><style>.edge>path:hover{stroke-width:8}</style>
<path fill="none" stroke="black" d="M6.71,-543.85C-0.27,-520.78 15.15,-497.81 31.41,-481.16"/>
<polygon fill="#e7e722" stroke="black" points="33.49,-484.02 38.28,-474.57 28.64,-478.97 33.49,-484.02"/>
</g>
<!-- flask_signals&#45;&gt;flask_helpers -->
<g id="edge33" class="edge">
<title>flask_signals&#45;&gt;flask_helpers</title><style>.edge>path:hover{stroke-width:8}</style>
<path fill="none" stroke="black" d="M48.71,-377.48C62.9,-352.73 87.52,-332.35 109.01,-317.97"/>
<polygon fill="#e7e722" stroke="black" points="110.83,-320.96 117.35,-312.61 107.04,-315.07 110.83,-320.96"/>
</g>
<!-- flask_signals&#45;&gt;flask_templating -->
<g id="edge34" class="edge">
<title>flask_signals&#45;&gt;flask_templating</title><style>.edge>path:hover{stroke-width:8}</style>
<path fill="none" stroke="black" d="M6.71,-454.11C12.24,-416.45 29.78,-412.5 48.71,-379.48"/>
<path fill="none" stroke="black" d="M48.71,-377.48C76.22,-329.5 65.65,-308.68 95.71,-262.25 103.21,-250.67 113.22,-239.37 122.64,-229.88"/>
<polygon fill="#e7e722" stroke="black" points="124.88,-232.58 129.61,-223.1 120,-227.57 124.88,-232.58"/>
</g>
<!-- flask_templating&#45;&gt;flask -->
<g id="edge35" class="edge">
<title>flask_templating&#45;&gt;flask</title><style>.edge>path:hover{stroke-width:8}</style>
<path fill="none" stroke="black" d="M173.44,-185.32C186.33,-175.5 202.68,-163.06 216.83,-152.27"/>
<polygon fill="blue" stroke="black" points="218.73,-155.23 224.56,-146.39 214.48,-149.66 218.73,-155.23"/>
</g>
<!-- markupsafe -->
<g id="node15" class="node">
<title>markupsafe</title><style>.edge>path:hover{stroke-width:8}</style>
<ellipse fill="#53b6b6" stroke="black" cx="282.71" cy="-203.63" rx="40.29" ry="18"/>
<text text-anchor="middle" x="282.71" y="-200.13" font-family="Helvetica,sans-Serif" font-size="10.00" fill="#000000">markupsafe</text>
</g>
<!-- markupsafe&#45;&gt;flask -->
<g id="edge37" class="edge">
<title>markupsafe&#45;&gt;flask</title><style>.edge>path:hover{stroke-width:8}</style>
<path fill="none" stroke="black" d="M275,-185.69C270.97,-176.85 265.93,-165.81 261.35,-155.75"/>
<polygon fill="#53b6b6" stroke="black" points="264.59,-154.41 257.26,-146.76 258.22,-157.31 264.59,-154.41"/>
</g>
<!-- openpyxl -->
<g id="node16" class="node">
<title>openpyxl</title><style>.edge>path:hover{stroke-width:8}</style>
<polygon fill="blue" stroke="black" points="744.21,-145 689.21,-145 689.21,-109 744.21,-109 744.21,-145"/>
<text text-anchor="middle" x="716.71" y="-123.5" font-family="Helvetica,sans-Serif" font-size="10.00" fill="white">openpyxl</text>
</g>
<!-- openpyxl&#45;&gt;main_py -->
<g id="edge38" class="edge">
<title>openpyxl&#45;&gt;main_py</title><style>.edge>path:hover{stroke-width:8}</style>
<path fill="none" stroke="black" d="M744.57,-123.29C797.03,-117.54 907.2,-102.2 929.71,-73"/>
</g>
<!-- openpyxl__constants -->
<g id="node17" class="node">
<title>openpyxl__constants</title><style>.edge>path:hover{stroke-width:8}</style>
<ellipse fill="#5353b6" stroke="black" cx="716.71" cy="-203.63" rx="45.25" ry="22.63"/>
<text text-anchor="middle" x="716.71" y="-206.13" font-family="Helvetica,sans-Serif" font-size="10.00" fill="#ffffff">openpyxl.</text>
<text text-anchor="middle" x="716.71" y="-194.13" font-family="Helvetica,sans-Serif" font-size="10.00" fill="#ffffff">_constants</text>
</g>
<!-- openpyxl__constants&#45;&gt;openpyxl -->
<g id="edge39" class="edge">
<title>openpyxl__constants&#45;&gt;openpyxl</title><style>.edge>path:hover{stroke-width:8}</style>
<path fill="none" stroke="black" d="M716.71,-180.64C716.71,-173.1 716.71,-164.56 716.71,-156.57"/>
<polygon fill="#5353b6" stroke="black" points="720.21,-156.61 716.71,-146.61 713.21,-156.61 720.21,-156.61"/>
</g>
<!-- openpyxl_compat -->
<g id="node18" class="node">
<title>openpyxl_compat</title><style>.edge>path:hover{stroke-width:8}</style>
<ellipse fill="#3333cc" stroke="black" cx="618.71" cy="-455.11" rx="41.01" ry="22.63"/>
<text text-anchor="middle" x="618.71" y="-457.61" font-family="Helvetica,sans-Serif" font-size="10.00" fill="#ffffff">openpyxl.</text>
<text text-anchor="middle" x="618.71" y="-445.61" font-family="Helvetica,sans-Serif" font-size="10.00" fill="#ffffff">compat</text>
</g>
<!-- openpyxl_compat&#45;&gt;openpyxl -->
<g id="edge40" class="edge">
<title>openpyxl_compat&#45;&gt;openpyxl</title><style>.edge>path:hover{stroke-width:8}</style>
<path fill="none" stroke="black" d="M788.71,-377.48C819.35,-346.12 789.51,-220.61 770.71,-181 765.73,-170.5 757.74,-160.92 749.41,-152.89"/>
<polygon fill="#3333cc" stroke="black" points="751.98,-150.49 742.2,-146.4 747.3,-155.69 751.98,-150.49"/>
<path fill="none" stroke="black" d="M656.57,-445.78C694.26,-435.76 751.68,-415.6 788.71,-379.48"/>
</g>
<!-- openpyxl_Workbook_workbook -->
<g id="node24" class="node">
<title>openpyxl_Workbook_workbook</title><style>.edge>path:hover{stroke-width:8}</style>
<ellipse fill="#4646a4" stroke="black" cx="860.71" cy="-293.37" rx="44.19" ry="31.11"/>
<text text-anchor="middle" x="860.71" y="-301.87" font-family="Helvetica,sans-Serif" font-size="10.00" fill="#ffffff">openpyxl.</text>
<text text-anchor="middle" x="860.71" y="-289.87" font-family="Helvetica,sans-Serif" font-size="10.00" fill="#ffffff">Workbook.</text>
<text text-anchor="middle" x="860.71" y="-277.87" font-family="Helvetica,sans-Serif" font-size="10.00" fill="#ffffff">workbook</text>
</g>
<!-- openpyxl_compat&#45;&gt;openpyxl_Workbook_workbook -->
<g id="edge41" class="edge">
<title>openpyxl_compat&#45;&gt;openpyxl_Workbook_workbook</title><style>.edge>path:hover{stroke-width:8}</style>
<path fill="none" stroke="black" d="M788.71,-377.48C803.54,-362.3 819.07,-344.63 831.9,-329.49"/>
<polygon fill="#3333cc" stroke="black" points="834.38,-331.98 838.13,-322.07 829.02,-327.47 834.38,-331.98"/>
</g>
<!-- openpyxl_workbook_Workbook -->
<g id="node25" class="node">
<title>openpyxl_workbook_Workbook</title><style>.edge>path:hover{stroke-width:8}</style>
<polygon fill="blue" stroke="black" points="609.21,-315.37 548.21,-315.37 548.21,-271.37 609.21,-271.37 609.21,-315.37"/>
<text text-anchor="middle" x="578.71" y="-301.87" font-family="Helvetica,sans-Serif" font-size="10.00" fill="white">openpyxl.</text>
<text text-anchor="middle" x="578.71" y="-289.87" font-family="Helvetica,sans-Serif" font-size="10.00" fill="white">workbook.</text>
<text text-anchor="middle" x="578.71" y="-277.87" font-family="Helvetica,sans-Serif" font-size="10.00" fill="white">Workbook</text>
</g>
<!-- openpyxl_compat&#45;&gt;openpyxl_workbook_Workbook -->
<g id="edge42" class="edge">
<title>openpyxl_compat&#45;&gt;openpyxl_workbook_Workbook</title><style>.edge>path:hover{stroke-width:8}</style>
<path fill="none" stroke="black" d="M613.23,-432.23C606.39,-404.91 594.63,-357.95 586.76,-326.53"/>
<polygon fill="#3333cc" stroke="black" points="590.25,-326.04 584.43,-317.19 583.46,-327.74 590.25,-326.04"/>
</g>
<!-- openpyxl_compat_numbers -->
<g id="node19" class="node">
<title>openpyxl_compat_numbers</title><style>.edge>path:hover{stroke-width:8}</style>
<ellipse fill="#4747c2" stroke="black" cx="618.71" cy="-544.85" rx="41.01" ry="31.11"/>
<text text-anchor="middle" x="618.71" y="-553.35" font-family="Helvetica,sans-Serif" font-size="10.00" fill="#ffffff">openpyxl.</text>
<text text-anchor="middle" x="618.71" y="-541.35" font-family="Helvetica,sans-Serif" font-size="10.00" fill="#ffffff">compat.</text>
<text text-anchor="middle" x="618.71" y="-529.35" font-family="Helvetica,sans-Serif" font-size="10.00" fill="#ffffff">numbers</text>
</g>
<!-- openpyxl_compat_numbers&#45;&gt;openpyxl -->
<g id="edge43" class="edge">
<title>openpyxl_compat_numbers&#45;&gt;openpyxl</title><style>.edge>path:hover{stroke-width:8}</style>
<path fill="none" stroke="black" d="M443.71,-202.63C447.96,-190.56 451.66,-187.44 462.71,-181 530.95,-141.22 624.87,-131.07 677.28,-128.62"/>
<polygon fill="#4747c2" stroke="black" points="677.37,-132.12 687.22,-128.24 677.1,-125.13 677.37,-132.12"/>
<path fill="none" stroke="black" d="M443.71,-292.37C439.44,-253.61 430.75,-241.41 443.71,-204.63"/>
<path fill="none" stroke="black" d="M578.38,-538.36C541.95,-531.11 489.99,-514.63 462.71,-477.74 414,-411.85 452.69,-375.81 443.71,-294.37"/>
</g>
<!-- openpyxl_compat_numbers&#45;&gt;openpyxl_compat -->
<g id="edge44" class="edge">
<title>openpyxl_compat_numbers&#45;&gt;openpyxl_compat</title><style>.edge>path:hover{stroke-width:8}</style>
<path fill="none" stroke="black" d="M618.71,-513.65C618.71,-505.88 618.71,-497.48 618.71,-489.56"/>
<polygon fill="#4747c2" stroke="black" points="622.21,-489.56 618.71,-479.56 615.21,-489.56 622.21,-489.56"/>
</g>
<!-- openpyxl_reader -->
<g id="node20" class="node">
<title>openpyxl_reader</title><style>.edge>path:hover{stroke-width:8}</style>
<ellipse fill="#5353b6" stroke="black" cx="512.71" cy="-203.63" rx="41.01" ry="22.63"/>
<text text-anchor="middle" x="512.71" y="-206.13" font-family="Helvetica,sans-Serif" font-size="10.00" fill="#ffffff">openpyxl.</text>
<text text-anchor="middle" x="512.71" y="-194.13" font-family="Helvetica,sans-Serif" font-size="10.00" fill="#ffffff">reader</text>
</g>
<!-- openpyxl_reader&#45;&gt;openpyxl -->
<g id="edge45" class="edge">
<title>openpyxl_reader&#45;&gt;openpyxl</title><style>.edge>path:hover{stroke-width:8}</style>
<path fill="none" stroke="black" d="M544.03,-188.64C550.19,-186.02 556.63,-183.36 562.71,-181 601.57,-165.93 646.73,-150.65 678.06,-140.39"/>
<polygon fill="#5353b6" stroke="black" points="679.08,-143.74 687.5,-137.31 676.91,-137.08 679.08,-143.74"/>
</g>
<!-- openpyxl_reader_excel -->
<g id="node21" class="node">
<title>openpyxl_reader_excel</title><style>.edge>path:hover{stroke-width:8}</style>
<polygon fill="blue" stroke="black" points="529.71,-315.37 471.71,-315.37 471.71,-271.37 529.71,-271.37 529.71,-315.37"/>
<text text-anchor="middle" x="500.71" y="-301.87" font-family="Helvetica,sans-Serif" font-size="10.00" fill="white">openpyxl.</text>
<text text-anchor="middle" x="500.71" y="-289.87" font-family="Helvetica,sans-Serif" font-size="10.00" fill="white">reader.</text>
<text text-anchor="middle" x="500.71" y="-277.87" font-family="Helvetica,sans-Serif" font-size="10.00" fill="white">excel</text>
</g>
<!-- openpyxl_reader_excel&#45;&gt;openpyxl -->
<g id="edge46" class="edge">
<title>openpyxl_reader_excel&#45;&gt;openpyxl</title><style>.edge>path:hover{stroke-width:8}</style>
<path fill="none" stroke="black" d="M472.92,-271.2C454.41,-254.32 434.96,-229.47 443.71,-204.63"/>
</g>
<!-- openpyxl_Workbook -->
<g id="node22" class="node">
<title>openpyxl_Workbook</title><style>.edge>path:hover{stroke-width:8}</style>
<ellipse fill="#4c4cb3" stroke="black" cx="859.71" cy="-203.63" rx="42.07" ry="22.63"/>
<text text-anchor="middle" x="859.71" y="-206.13" font-family="Helvetica,sans-Serif" font-size="10.00" fill="#ffffff">openpyxl.</text>
<text text-anchor="middle" x="859.71" y="-194.13" font-family="Helvetica,sans-Serif" font-size="10.00" fill="#ffffff">Workbook</text>
</g>
<!-- openpyxl_Workbook&#45;&gt;main_py -->
<g id="edge47" class="edge">
<title>openpyxl_Workbook&#45;&gt;main_py</title><style>.edge>path:hover{stroke-width:8}</style>
<path fill="none" stroke="black" d="M886.17,-185.8C903.69,-172.63 924.39,-152.47 929.71,-128"/>
<path fill="none" stroke="black" d="M929.71,-126C934.72,-102.98 915.33,-91.66 929.71,-73"/>
</g>
<!-- openpyxl_workbook -->
<g id="node23" class="node">
<title>openpyxl_workbook</title><style>.edge>path:hover{stroke-width:8}</style>
<ellipse fill="#5353b6" stroke="black" cx="612.71" cy="-203.63" rx="41.01" ry="22.63"/>
<text text-anchor="middle" x="612.71" y="-206.13" font-family="Helvetica,sans-Serif" font-size="10.00" fill="#ffffff">openpyxl.</text>
<text text-anchor="middle" x="612.71" y="-194.13" font-family="Helvetica,sans-Serif" font-size="10.00" fill="#ffffff">workbook</text>
</g>
<!-- openpyxl_workbook&#45;&gt;openpyxl -->
<g id="edge48" class="edge">
<title>openpyxl_workbook&#45;&gt;openpyxl</title><style>.edge>path:hover{stroke-width:8}</style>
<path fill="none" stroke="black" d="M637.09,-185.13C650.92,-175.21 668.41,-162.66 683.47,-151.85"/>
<polygon fill="#5353b6" stroke="black" points="685.17,-154.94 691.25,-146.27 681.09,-149.26 685.17,-154.94"/>
</g>
<!-- openpyxl_Workbook_workbook&#45;&gt;openpyxl_Workbook -->
<g id="edge50" class="edge">
<title>openpyxl_Workbook_workbook&#45;&gt;openpyxl_Workbook</title><style>.edge>path:hover{stroke-width:8}</style>
<path fill="none" stroke="black" d="M860.37,-262.17C860.28,-254.4 860.18,-246 860.09,-238.08"/>
<polygon fill="#4646a4" stroke="black" points="863.59,-238.04 859.98,-228.08 856.59,-238.12 863.59,-238.04"/>
</g>
<!-- openpyxl_workbook_Workbook&#45;&gt;openpyxl -->
<g id="edge49" class="edge">
<title>openpyxl_workbook_Workbook&#45;&gt;openpyxl</title><style>.edge>path:hover{stroke-width:8}</style>
<path fill="none" stroke="black" d="M551.68,-270.87C547.44,-267.84 543.03,-264.86 538.71,-262.25 496.45,-236.7 427.3,-251.2 443.71,-204.63"/>
</g>
<!-- openpyxl_xml -->
<g id="node26" class="node">
<title>openpyxl_xml</title><style>.edge>path:hover{stroke-width:8}</style>
<ellipse fill="#2f2fdb" stroke="black" cx="515.71" cy="-455.11" rx="44.35" ry="18"/>
<text text-anchor="middle" x="515.71" y="-451.61" font-family="Helvetica,sans-Serif" font-size="10.00" fill="#ffffff">openpyxl.xml</text>
</g>
<!-- openpyxl_xml&#45;&gt;openpyxl -->
<g id="edge51" class="edge">
<title>openpyxl_xml&#45;&gt;openpyxl</title><style>.edge>path:hover{stroke-width:8}</style>
<path fill="none" stroke="black" d="M503.72,-437.28C494.45,-422.75 483,-400.8 481.71,-379.48"/>
<path fill="none" stroke="black" d="M481.71,-377.48C479.25,-336.94 448.16,-334.74 443.71,-294.37"/>
</g>
<!-- openpyxl_xml&#45;&gt;openpyxl_reader_excel -->
<g id="edge52" class="edge">
<title>openpyxl_xml&#45;&gt;openpyxl_reader_excel</title><style>.edge>path:hover{stroke-width:8}</style>
<path fill="none" stroke="black" d="M481.71,-377.48C480.68,-360.41 484.45,-341.82 488.89,-326.55"/>
<polygon fill="#2f2fdb" stroke="black" points="492.22,-327.64 491.9,-317.05 485.55,-325.53 492.22,-327.64"/>
</g>
<!-- openpyxl_xml&#45;&gt;openpyxl_Workbook_workbook -->
<g id="edge53" class="edge">
<title>openpyxl_xml&#45;&gt;openpyxl_Workbook_workbook</title><style>.edge>path:hover{stroke-width:8}</style>
<path fill="none" stroke="black" d="M544.24,-440.9C603.71,-413.36 741.43,-349.6 814.02,-315.99"/>
<polygon fill="#2f2fdb" stroke="black" points="815.26,-319.27 822.86,-311.89 812.32,-312.92 815.26,-319.27"/>
</g>
<!-- openpyxl_xml&#45;&gt;openpyxl_workbook_Workbook -->
<g id="edge54" class="edge">
<title>openpyxl_xml&#45;&gt;openpyxl_workbook_Workbook</title><style>.edge>path:hover{stroke-width:8}</style>
<path fill="none" stroke="black" d="M481.71,-377.48C481.46,-373.31 515.11,-345.25 542.84,-322.87"/>
<polygon fill="#2f2fdb" stroke="black" points="544.81,-325.78 550.41,-316.79 540.42,-320.33 544.81,-325.78"/>
</g>
<!-- sqlalchemy -->
<g id="node27" class="node">
<title>sqlalchemy</title><style>.edge>path:hover{stroke-width:8}</style>
<polygon fill="blue" stroke="black" points="1032.46,-473.11 966.96,-473.11 966.96,-437.11 1032.46,-437.11 1032.46,-473.11"/>
<text text-anchor="middle" x="999.71" y="-451.61" font-family="Helvetica,sans-Serif" font-size="10.00" fill="white">sqlalchemy</text>
</g>
<!-- sqlalchemy&#45;&gt;database_database -->
<g id="edge55" class="edge">
<title>sqlalchemy&#45;&gt;database_database</title><style>.edge>path:hover{stroke-width:8}</style>
<path fill="none" stroke="black" d="M999.71,-292.37C996.36,-274.54 996.12,-254.31 996.83,-237.77"/>
<polygon fill="blue" stroke="black" points="1000.32,-238.17 997.4,-227.98 993.33,-237.76 1000.32,-238.17"/>
</g>
<!-- sqlalchemy&#45;&gt;database_models -->
<g id="edge56" class="edge">
<title>sqlalchemy&#45;&gt;database_models</title><style>.edge>path:hover{stroke-width:8}</style>
<path fill="none" stroke="black" d="M999.71,-377.48C1004.29,-354.31 1021.13,-333.93 1037.14,-319.15"/>
<polygon fill="blue" stroke="black" points="1039.01,-322.16 1044.23,-312.94 1034.4,-316.89 1039.01,-322.16"/>
</g>
<!-- sqlalchemy&#45;&gt;main_py -->
<g id="edge57" class="edge">
<title>sqlalchemy&#45;&gt;main_py</title><style>.edge>path:hover{stroke-width:8}</style>
<path fill="none" stroke="black" d="M997.82,-436.73C996.61,-421.49 995.89,-398.8 999.71,-379.48"/>
<path fill="none" stroke="black" d="M999.71,-292.37C992.85,-255.9 963.98,-260.08 948.71,-226.25 930.41,-185.72 920.26,-171.46 929.71,-128"/>
<path fill="none" stroke="black" d="M999.71,-377.48C1006.87,-341.24 1005.69,-330.82 999.71,-294.37"/>
</g>
<!-- sqlalchemy_engine -->
<g id="node28" class="node">
<title>sqlalchemy_engine</title><style>.edge>path:hover{stroke-width:8}</style>
<polygon fill="blue" stroke="black" points="1095.59,-647.96 1027.84,-647.96 1027.84,-611.96 1095.59,-611.96 1095.59,-647.96"/>
<text text-anchor="middle" x="1061.71" y="-632.46" font-family="Helvetica,sans-Serif" font-size="10.00" fill="white">sqlalchemy.</text>
<text text-anchor="middle" x="1061.71" y="-620.46" font-family="Helvetica,sans-Serif" font-size="10.00" fill="white">engine</text>
</g>
<!-- sqlalchemy_engine&#45;&gt;sqlalchemy -->
<g id="edge58" class="edge">
<title>sqlalchemy_engine&#45;&gt;sqlalchemy</title><style>.edge>path:hover{stroke-width:8}</style>
<path fill="none" stroke="black" d="M1062.99,-611.69C1063.93,-594.82 1064.61,-568.46 1061.71,-545.85"/>
</g>
<!-- sqlalchemy_events -->
<g id="node29" class="node">
<title>sqlalchemy_events</title><style>.edge>path:hover{stroke-width:8}</style>
<polygon fill="blue" stroke="black" points="1157.59,-562.85 1089.84,-562.85 1089.84,-526.85 1157.59,-526.85 1157.59,-562.85"/>
<text text-anchor="middle" x="1123.71" y="-547.35" font-family="Helvetica,sans-Serif" font-size="10.00" fill="white">sqlalchemy.</text>
<text text-anchor="middle" x="1123.71" y="-535.35" font-family="Helvetica,sans-Serif" font-size="10.00" fill="white">events</text>
</g>
<!-- sqlalchemy_engine&#45;&gt;sqlalchemy_events -->
<g id="edge59" class="edge">
<title>sqlalchemy_engine&#45;&gt;sqlalchemy_events</title><style>.edge>path:hover{stroke-width:8}</style>
<path fill="none" stroke="black" d="M1074.56,-611.74C1083.06,-600.34 1094.38,-585.16 1104.02,-572.25"/>
<polygon fill="blue" stroke="black" points="1106.59,-574.65 1109.76,-564.55 1100.98,-570.47 1106.59,-574.65"/>
</g>
<!-- sqlalchemy_events&#45;&gt;sqlalchemy -->
<g id="edge60" class="edge">
<title>sqlalchemy_events&#45;&gt;sqlalchemy</title><style>.edge>path:hover{stroke-width:8}</style>
<path fill="none" stroke="black" d="M1099.21,-526.51C1080.36,-513.17 1054.1,-494.59 1033.29,-479.87"/>
<polygon fill="blue" stroke="black" points="1035.58,-477.2 1025.39,-474.28 1031.54,-482.91 1035.58,-477.2"/>
</g>
<!-- sqlalchemy_exc -->
<g id="node30" class="node">
<title>sqlalchemy_exc</title><style>.edge>path:hover{stroke-width:8}</style>
<ellipse fill="#c040bf" stroke="black" cx="851.71" cy="-701.96" rx="50.21" ry="18"/>
<text text-anchor="middle" x="851.71" y="-698.46" font-family="Helvetica,sans-Serif" font-size="10.00" fill="#ffffff">sqlalchemy.exc</text>
</g>
<!-- sqlalchemy_exc&#45;&gt;sqlalchemy -->
<g id="edge61" class="edge">
<title>sqlalchemy_exc&#45;&gt;sqlalchemy</title><style>.edge>path:hover{stroke-width:8}</style>
<path fill="none" stroke="black" d="M849.38,-683.7C847.99,-669.35 847.26,-648.51 851.71,-630.96"/>
</g>
<!-- sqlalchemy_inspection -->
<g id="node31" class="node">
<title>sqlalchemy_inspection</title><style>.edge>path:hover{stroke-width:8}</style>
<polygon fill="blue" stroke="black" points="947.59,-647.96 879.84,-647.96 879.84,-611.96 947.59,-611.96 947.59,-647.96"/>
<text text-anchor="middle" x="913.71" y="-632.46" font-family="Helvetica,sans-Serif" font-size="10.00" fill="white">sqlalchemy.</text>
<text text-anchor="middle" x="913.71" y="-620.46" font-family="Helvetica,sans-Serif" font-size="10.00" fill="white">inspection</text>
</g>
<!-- sqlalchemy_exc&#45;&gt;sqlalchemy_inspection -->
<g id="edge62" class="edge">
<title>sqlalchemy_exc&#45;&gt;sqlalchemy_inspection</title><style>.edge>path:hover{stroke-width:8}</style>
<path fill="none" stroke="black" d="M866.4,-684.37C873.68,-676.16 882.62,-666.06 890.77,-656.86"/>
<polygon fill="#c040bf" stroke="black" points="893.24,-659.35 897.25,-649.54 888,-654.71 893.24,-659.35"/>
</g>
<!-- sqlalchemy_inspection&#45;&gt;sqlalchemy -->
<g id="edge63" class="edge">
<title>sqlalchemy_inspection&#45;&gt;sqlalchemy</title><style>.edge>path:hover{stroke-width:8}</style>
<path fill="none" stroke="black" d="M886.83,-611.74C866.19,-596.12 842.63,-571.66 851.71,-545.85"/>
</g>
<!-- sqlalchemy_schema -->
<g id="node32" class="node">
<title>sqlalchemy_schema</title><style>.edge>path:hover{stroke-width:8}</style>
<polygon fill="blue" stroke="black" points="947.59,-562.85 879.84,-562.85 879.84,-526.85 947.59,-526.85 947.59,-562.85"/>
<text text-anchor="middle" x="913.71" y="-547.35" font-family="Helvetica,sans-Serif" font-size="10.00" fill="white">sqlalchemy.</text>
<text text-anchor="middle" x="913.71" y="-535.35" font-family="Helvetica,sans-Serif" font-size="10.00" fill="white">schema</text>
</g>
<!-- sqlalchemy_schema&#45;&gt;sqlalchemy -->
<g id="edge64" class="edge">
<title>sqlalchemy_schema&#45;&gt;sqlalchemy</title><style>.edge>path:hover{stroke-width:8}</style>
<path fill="none" stroke="black" d="M930.7,-526.51C943.31,-513.65 960.68,-495.92 974.85,-481.47"/>
<polygon fill="blue" stroke="black" points="977.2,-484.08 981.7,-474.49 972.2,-479.18 977.2,-484.08"/>
</g>
<!-- sqlalchemy_sql -->
<g id="node33" class="node">
<title>sqlalchemy_sql</title><style>.edge>path:hover{stroke-width:8}</style>
<polygon fill="blue" stroke="black" points="1070.96,-719.96 990.46,-719.96 990.46,-683.96 1070.96,-683.96 1070.96,-719.96"/>
<text text-anchor="middle" x="1030.71" y="-698.46" font-family="Helvetica,sans-Serif" font-size="10.00" fill="white">sqlalchemy.sql</text>
</g>
<!-- sqlalchemy_sql&#45;&gt;sqlalchemy -->
<g id="edge65" class="edge">
<title>sqlalchemy_sql&#45;&gt;sqlalchemy</title><style>.edge>path:hover{stroke-width:8}</style>
<path fill="none" stroke="black" d="M1061.71,-543.85C1058.62,-519.74 1042.61,-497.45 1027.64,-481.36"/>
<polygon fill="blue" stroke="black" points="1030.54,-479.32 1021.04,-474.62 1025.54,-484.22 1030.54,-479.32"/>
<path fill="none" stroke="black" d="M999.71,-628.96C988.3,-584.31 1067.58,-591.56 1061.71,-545.85"/>
</g>
<!-- sqlalchemy_sql&#45;&gt;sqlalchemy_engine -->
<g id="edge66" class="edge">
<title>sqlalchemy_sql&#45;&gt;sqlalchemy_engine</title><style>.edge>path:hover{stroke-width:8}</style>
<path fill="none" stroke="black" d="M1038.37,-683.66C1041.75,-676.03 1045.81,-666.88 1049.58,-658.36"/>
<polygon fill="blue" stroke="black" points="1052.67,-660.01 1053.52,-649.45 1046.27,-657.17 1052.67,-660.01"/>
</g>
<!-- sqlalchemy_sql&#45;&gt;sqlalchemy_events -->
<g id="edge67" class="edge">
<title>sqlalchemy_sql&#45;&gt;sqlalchemy_events</title><style>.edge>path:hover{stroke-width:8}</style>
<path fill="none" stroke="black" d="M1065.59,-683.69C1079.86,-674.9 1095.21,-662.89 1104.71,-647.96 1118.69,-625.98 1122.95,-596.3 1124,-574.6"/>
<polygon fill="blue" stroke="black" points="1127.49,-574.76 1124.25,-564.68 1120.5,-574.58 1127.49,-574.76"/>
</g>
<!-- sqlalchemy_sql&#45;&gt;sqlalchemy_schema -->
<g id="edge68" class="edge">
<title>sqlalchemy_sql&#45;&gt;sqlalchemy_schema</title><style>.edge>path:hover{stroke-width:8}</style>
<path fill="none" stroke="black" d="M999.71,-628.96C995.94,-614.22 968.31,-589.12 945.37,-570.35"/>
<polygon fill="blue" stroke="black" points="947.71,-567.74 937.72,-564.2 943.32,-573.2 947.71,-567.74"/>
<path fill="none" stroke="black" d="M1021.12,-683.71C1013.92,-669.89 1004.51,-649.76 999.71,-630.96"/>
</g>
<!-- sqlalchemy_types -->
<g id="node34" class="node">
<title>sqlalchemy_types</title><style>.edge>path:hover{stroke-width:8}</style>
<polygon fill="blue" stroke="black" points="1033.59,-562.85 965.84,-562.85 965.84,-526.85 1033.59,-526.85 1033.59,-562.85"/>
<text text-anchor="middle" x="999.71" y="-547.35" font-family="Helvetica,sans-Serif" font-size="10.00" fill="white">sqlalchemy.</text>
<text text-anchor="middle" x="999.71" y="-535.35" font-family="Helvetica,sans-Serif" font-size="10.00" fill="white">types</text>
</g>
<!-- sqlalchemy_sql&#45;&gt;sqlalchemy_types -->
<g id="edge69" class="edge">
<title>sqlalchemy_sql&#45;&gt;sqlalchemy_types</title><style>.edge>path:hover{stroke-width:8}</style>
<path fill="none" stroke="black" d="M999.71,-628.96C995.19,-611.25 995.14,-590.71 996.25,-574.48"/>
<polygon fill="blue" stroke="black" points="999.73,-574.81 997.13,-564.54 992.76,-574.19 999.73,-574.81"/>
</g>
<!-- sqlalchemy_types&#45;&gt;sqlalchemy -->
<g id="edge70" class="edge">
<title>sqlalchemy_types&#45;&gt;sqlalchemy</title><style>.edge>path:hover{stroke-width:8}</style>
<path fill="none" stroke="black" d="M999.71,-526.51C999.71,-514.62 999.71,-498.55 999.71,-484.77"/>
<polygon fill="blue" stroke="black" points="1003.21,-484.92 999.71,-474.92 996.21,-484.92 1003.21,-484.92"/>
</g>
<!-- sqlalchemy_util -->
<g id="node35" class="node">
<title>sqlalchemy_util</title><style>.edge>path:hover{stroke-width:8}</style>
<ellipse fill="#db2fdb" stroke="black" cx="890.71" cy="-778.59" rx="47.91" ry="22.63"/>
<text text-anchor="middle" x="890.71" y="-781.09" font-family="Helvetica,sans-Serif" font-size="10.00" fill="#ffffff">sqlalchemy.</text>
<text text-anchor="middle" x="890.71" y="-769.09" font-family="Helvetica,sans-Serif" font-size="10.00" fill="#ffffff">util</text>
</g>
<!-- sqlalchemy_util&#45;&gt;sqlalchemy -->
<g id="edge71" class="edge">
<title>sqlalchemy_util&#45;&gt;sqlalchemy</title><style>.edge>path:hover{stroke-width:8}</style>
<path fill="none" stroke="black" d="M851.71,-543.85C867.05,-500.25 917.91,-477.3 955.75,-465.97"/>
<polygon fill="#db2fdb" stroke="black" points="956.39,-469.42 965.07,-463.35 954.5,-462.68 956.39,-469.42"/>
<path fill="none" stroke="black" d="M851.71,-628.96C860.79,-593.15 839.45,-580.69 851.71,-545.85"/>
<path fill="none" stroke="black" d="M851.62,-765.43C830.14,-756.52 805.35,-742.06 792.71,-719.96 784.77,-706.07 786.19,-698.57 792.71,-683.96 807.07,-651.77 843.05,-665.13 851.71,-630.96"/>
</g>
<!-- sqlalchemy_util&#45;&gt;sqlalchemy_exc -->
<g id="edge72" class="edge">
<title>sqlalchemy_util&#45;&gt;sqlalchemy_exc</title><style>.edge>path:hover{stroke-width:8}</style>
<path fill="none" stroke="black" d="M879.64,-756.4C875.35,-748.19 870.38,-738.69 865.84,-730"/>
<polygon fill="#db2fdb" stroke="black" points="869.02,-728.52 861.28,-721.28 862.81,-731.76 869.02,-728.52"/>
</g>
<!-- sqlalchemy_util&#45;&gt;sqlalchemy_inspection -->
<g id="edge73" class="edge">
<title>sqlalchemy_util&#45;&gt;sqlalchemy_inspection</title><style>.edge>path:hover{stroke-width:8}</style>
<path fill="none" stroke="black" d="M899.89,-756.11C904,-745.45 908.43,-732.25 910.71,-719.96 914.41,-700.05 915.11,-677.21 914.91,-659.66"/>
<polygon fill="#db2fdb" stroke="black" points="918.41,-659.62 914.68,-649.7 911.41,-659.78 918.41,-659.62"/>
</g>
<!-- sqlalchemy_util&#45;&gt;sqlalchemy_sql -->
<g id="edge74" class="edge">
<title>sqlalchemy_util&#45;&gt;sqlalchemy_sql</title><style>.edge>path:hover{stroke-width:8}</style>
<path fill="none" stroke="black" d="M921.78,-761.03C941.3,-750.62 966.75,-737.06 988.14,-725.65"/>
<polygon fill="#db2fdb" stroke="black" points="989.75,-728.76 996.93,-720.97 986.46,-722.58 989.75,-728.76"/>
</g>
</g>
</svg>
